<svg xmlns="http://www.w3.org/2000/svg" viewBox="0 0 32 32" id="call"><linearGradient id="a" x1="4.375" x2="25.304" y1="16.388" y2="16.388" gradientUnits="userSpaceOnUse"><stop offset="0" stop-color="#2B2E81"></stop><stop offset="1" stop-color="#BE4F9C"></stop></linearGradient><path fill="url(#a)" d="M21 19.1c-.5-.5-1.3-.6-1.9-.2l-2.2 1.5c-.6.4-1.4.3-1.9-.2l-5.5-5.5c-.5-.5-.6-1.3-.2-1.9l1.5-2.2c.4-.6.3-1.4-.2-1.9L8.4 6.5c-.6-.6-1.5-.6-2.1 0l-2 1.9c-1.1 1.1-1.6 2.7-1.2 4.3.6 2.4 1.8 4.5 3.5 6.2l4.1 4.1c1.7 1.7 3.9 2.9 6.2 3.5.4.1.7.1 1.1.1 1.2 0 2.3-.5 3.2-1.3l1.9-1.9c.6-.6.6-1.5 0-2.1L21 19.1zM7 7.2c.1-.1.2-.1.4-.1.1 0 .3 0 .4.1L10 9.4c.2.2.2.4.1.6l-.9 1.3-3.3-3L7 7.2zm13.6 17.5c-.9.9-2.1 1.2-3.3.9-2.2-.5-4.2-1.7-5.7-3.3l-4.1-4.1c-1.6-1.6-2.7-3.6-3.3-5.7-.4-1.2 0-2.5.8-3.4l.2-.1 3.3 3.3c-.7 1-.5 2.3.3 3.2l5.5 5.5c.8.8 2.2 1 3.1.3l3.3 3.3-.1.1zm1.9-1.9-1.1 1.1-3.2-3.2 1.4-.9c.2-.1.5-.1.6.1l2.2 2.2c.3.1.3.5.1.7z"></path><linearGradient id="b" x1="4.375" x2="25.304" y1="8.896" y2="8.896" gradientUnits="userSpaceOnUse"><stop offset="0" stop-color="#2B2E81"></stop><stop offset="1" stop-color="#BE4F9C"></stop></linearGradient><path fill="url(#b)" d="M13.9 10.4H17c-.1.2-.1.4-.1.6 0 .4.2.8.4 1.1.3.3.7.4 1.1.4.4 0 .8-.2 1.1-.4l2.1-2.1c.2-.3.4-.7.4-1.1 0-.4-.2-.8-.4-1.1l-2.1-2.1c-.6-.6-1.6-.6-2.1 0-.4.3-.5.7-.5 1.1 0 .2 0 .4.1.6h-3.1c-.8 0-1.5.7-1.5 1.5s.6 1.5 1.5 1.5zm0-2h4.2c.2 0 .4-.1.5-.3.1-.2 0-.4-.1-.5l-.5-.5c-.1-.1-.1-.2-.1-.4 0-.1.1-.3.1-.4.2-.2.5-.2.7 0l2.1 2.1c.1.2.2.4.2.5 0 .1-.1.3-.1.4l-2.1 2.1c-.2.2-.5.2-.7 0-.1-.1-.1-.2-.1-.4 0-.1.1-.3.1-.4l.4-.4c.1-.1.2-.4.1-.5-.1-.2-.3-.3-.5-.3h-4.2c-.3 0-.5-.2-.5-.5s.2-.5.5-.5z"></path><linearGradient id="c" x1="4.375" x2="25.304" y1="14.896" y2="14.896" gradientUnits="userSpaceOnUse"><stop offset="0" stop-color="#2B2E81"></stop><stop offset="1" stop-color="#BE4F9C"></stop></linearGradient><path fill="url(#c)" d="M27.5 13.4h-3.1c.1-.2.1-.4.1-.6 0-.4-.2-.8-.4-1.1-.6-.6-1.6-.6-2.1 0l-2.1 2.1c-.3.3-.4.7-.4 1.1 0 .4.2.8.4 1.1l2.1 2.1c.3.3.7.4 1.1.4.4 0 .8-.2 1.1-.4.3-.3.4-.7.4-1.1 0-.2 0-.4-.1-.6h3.1c.8 0 1.5-.7 1.5-1.5s-.8-1.5-1.6-1.5zm0 2h-4.2c-.2 0-.4.1-.5.3-.1.2 0 .4.1.5l.4.4c.1.1.1.2.1.4 0 .1-.1.3-.1.4-.2.2-.5.2-.7 0l-2.1-2.1c-.1-.1-.1-.2-.1-.4 0-.1.1-.3.1-.4l2.1-2.1c.1-.1.2-.1.4-.1.1 0 .3.1.4.1.1.1.1.2.1.4 0 .1-.1.3-.1.4l-.4.4c-.1.1-.2.4-.1.5.1.2.3.3.5.3h4.2c.3 0 .5.2.5.5s-.3.5-.6.5z"></path></svg>